<svg version="1.0" xmlns="http://www.w3.org/2000/svg"
 width="581.000000pt" height="1280.000000pt" viewBox="0 0 581.000000 1280.000000"
 preserveAspectRatio="xMidYMid meet">
<metadata>
Created by potrace 1.15, written by Peter Selinger 2001-2017
</metadata>
<g transform="translate(0.000000,1280.000000) scale(0.100000,-0.100000)"
fill="#000000" stroke="none">
<path d="M2560 12555 c-610 -74 -1130 -316 -1552 -723 -153 -148 -257 -272
-369 -440 -293 -441 -439 -924 -439 -1453 0 -550 138 -1018 428 -1455 210
-315 450 -554 777 -774 86 -58 109 -79 154 -144 100 -145 161 -312 161 -441 0
-84 -61 -188 -260 -445 -95 -123 -115 -243 -65 -391 34 -98 63 -141 135 -193
87 -64 140 -82 198 -68 90 22 185 33 195 23 14 -14 10 -103 -9 -238 -9 -62
-14 -129 -12 -150 3 -21 56 -143 118 -270 l114 -233 -48 -119 c-30 -77 -45
-125 -39 -134 4 -8 85 -98 179 -200 230 -249 234 -263 121 -467 -29 -52 -75
-141 -101 -197 l-49 -101 72 -151 c69 -145 71 -152 71 -226 0 -77 0 -78 -72
-209 -39 -72 -120 -211 -180 -308 -59 -97 -108 -180 -108 -185 0 -4 48 -60
106 -123 110 -118 144 -174 144 -237 0 -42 -27 -90 -68 -120 -41 -30 -262
-318 -262 -340 0 -10 45 -75 101 -143 118 -146 149 -192 149 -221 0 -12 -22
-51 -49 -88 -71 -97 -201 -300 -201 -315 0 -7 13 -25 30 -41 16 -16 30 -34 30
-40 0 -10 210 -199 913 -819 95 -83 172 -145 177 -140 5 5 207 272 449 593
l441 584 0 3016 0 3016 90 38 c107 46 304 158 415 235 507 352 859 837 1034
1421 71 237 104 479 105 756 0 179 -19 443 -31 431 -3 -3 1 -53 8 -113 19
-156 16 -490 -5 -643 -65 -476 -225 -880 -494 -1242 -48 -65 -69 -86 -83 -83
-11 2 -17 0 -14 -6 4 -5 11 -6 17 -3 7 4 8 2 4 -5 -4 -6 -12 -9 -17 -6 -5 3
-7 0 -4 -7 3 -7 -44 -64 -107 -129 -82 -85 -89 -91 -26 -22 49 52 85 99 82
104 -3 5 -51 -37 -106 -93 l-100 -103 87 94 c47 51 109 122 137 157 28 35 54
61 58 59 4 -2 7 1 7 8 0 7 39 69 86 139 341 508 489 1126 422 1765 -34 319
-108 577 -250 868 -266 545 -691 957 -1275 1239 -243 116 -441 183 -650 217
-66 11 -78 15 -55 19 20 4 -10 10 -86 18 -147 15 -492 14 -629 -3z m2160
-4598 c0 -2 -15 -16 -32 -33 l-33 -29 29 33 c28 30 36 37 36 29z m-50 -10 c0
-2 -12 -14 -27 -28 l-28 -24 24 28 c23 25 31 32 31 24z m-30 -61 c0 -2 -8 -10
-17 -17 -16 -13 -17 -12 -4 4 13 16 21 21 21 13z"/>
<path d="M3318 12533 c6 -2 18 -2 25 0 6 3 1 5 -13 5 -14 0 -19 -2 -12 -5z"/>
<path d="M3378 12523 c6 -2 18 -2 25 0 6 3 1 5 -13 5 -14 0 -19 -2 -12 -5z"/>
<path d="M3438 12513 c7 -3 16 -2 19 1 4 3 -2 6 -13 5 -11 0 -14 -3 -6 -6z"/>
<path d="M4000 12330 c8 -5 20 -10 25 -10 6 0 3 5 -5 10 -8 5 -19 10 -25 10
-5 0 -3 -5 5 -10z"/>
<path d="M4160 12255 c0 -2 18 -14 40 -25 22 -11 40 -18 40 -15 0 2 -18 14
-40 25 -22 11 -40 18 -40 15z"/>
<path d="M4255 12203 c6 -6 28 -20 50 -32 22 -13 31 -15 20 -6 -22 18 -86 53
-70 38z"/>
<path d="M4355 12143 c6 -6 45 -34 88 -62 128 -85 265 -201 392 -332 241 -248
381 -461 564 -859 l11 -25 -6 25 c-3 14 -41 97 -84 185 -170 347 -410 651
-699 883 -110 88 -304 224 -266 185z"/>
<path d="M5413 10848 c19 -50 77 -244 88 -291 7 -31 14 -55 17 -53 10 11 -91
356 -105 356 -3 0 -3 -6 0 -12z"/>
<path d="M5522 10475 c0 -11 4 -33 8 -50 7 -27 8 -27 8 -5 0 14 -4 36 -8 50
-6 20 -8 21 -8 5z"/>
<path d="M5542 10365 c0 -16 2 -22 5 -12 2 9 2 23 0 30 -3 6 -5 -1 -5 -18z"/>
<path d="M4930 8211 c-20 -30 -13 -53 9 -27 12 14 24 56 16 56 -2 0 -13 -13
-25 -29z"/>
</g>
</svg>
